<svg xmlns="http://www.w3.org/2000/svg" viewBox="0 0 512 512"><defs><linearGradient id="g" x1="0" y1="0" x2="1" y2="1"><stop stop-color="#20c96b"/><stop offset="1" stop-color="#064e3b"/></linearGradient></defs><rect width="512" height="512" rx="112" fill="#03170e"/><rect x="34" y="34" width="444" height="444" rx="94" fill="url(#g)"/><path d="M119 171h47l23 137c4 23 24 39 48 39h126c20 0 38-13 45-32l31-85H194" fill="none" stroke="#fff" stroke-width="25" stroke-linecap="round" stroke-linejoin="round"/><circle cx="245" cy="390" r="24" fill="#f8c94a"/><circle cx="382" cy="390" r="24" fill="#f8c94a"/><path d="M280 120c12-31 42-48 73-41 20 5 35 19 43 37-27-8-55-2-75 17-12 12-20 27-23 43-18-15-26-34-18-56z" fill="#f8c94a"/><path d="M286 151c22-20 51-26 78-20" fill="none" stroke="#fff" stroke-width="11" stroke-linecap="round"/><text x="256" y="274" text-anchor="middle" fill="#fff" font-family="Arial,sans-serif" font-size="62" font-weight="900">SD</text><text x="256" y="451" text-anchor="middle" fill="#fff" font-family="Arial,sans-serif" font-size="27" font-weight="800" letter-spacing="5">DELIVERY</text></svg>